<?xml version="1.0" encoding="utf-8"?>
<!-- Generator: Adobe Illustrator 23.0.4, SVG Export Plug-In . SVG Version: 6.00 Build 0)  -->
<svg version="1.1" id="Layer_1" xmlns="http://www.w3.org/2000/svg" xmlns:xlink="http://www.w3.org/1999/xlink" x="0px" y="0px"
	 viewBox="0 0 1366 768" style="enable-background:new 0 0 1366 768;" xml:space="preserve">
<style type="text/css">
	.st0{opacity:0.29;fill:#FCEE21;stroke:#FFFFFF;stroke-miterlimit:10;}
	.st1{fill:none;stroke:#000000;stroke-miterlimit:10;}
	.st2{fill:#FFFFFF;stroke:#000000;stroke-miterlimit:10;}
	.st3{stroke:#000000;stroke-miterlimit:10;}
	.st4{fill:#FBB03B;stroke:#000000;stroke-miterlimit:10;}
	.st5{fill:none;stroke:#FFFFFF;stroke-miterlimit:10;}
</style>
<path class="st0" d="M0.46,173.11c949.86-75.82,1358.83-57.48,1362.58,29.87c3.77,87.88-402.15,255.46-1355.48,527.48"/>
<g>
	<line class="st1" x1="1178.5" y1="2.5" x2="1178.5" y2="146.49"/>
	<line x1="1178.5" y1="2.5" x2="1178.5" y2="146.49"/>
</g>
<path class="st2" d="M1213,209.77c0,18.91-15.33,34.23-34.25,34.23s-34.25-15.33-34.25-34.23c0-12.07,6.25-22.68,15.69-28.78
	l18.31-23.57l16.67,22.29C1205.8,185.52,1213,196.8,1213,209.77z"/>
<rect x="1162.5" y="142.99" class="st3" width="32" height="27.99"/>
<ellipse class="st3" cx="1178.5" cy="139.93" rx="7" ry="3.06"/>
<line class="st1" x1="1183.52" y1="170.2" x2="1190.06" y2="192.37"/>
<path class="st1" d="M1197,201.98c0,5.33-3.2,9.66-7.15,9.66l-6.46-5.53l-4.98-4.25l5.05-4.21l6.39-5.32
	C1193.8,192.32,1197,196.65,1197,201.98z"/>
<line class="st1" x1="1166.28" y1="212" x2="1166.27" y2="212.01"/>
<line class="st1" x1="-311.5" y1="302.5" x2="-311.5" y2="302.5"/>
<line class="st1" x1="1166.28" y1="193.2" x2="1166.27" y2="193.2"/>
<line class="st1" x1="1178.06" y1="202.28" x2="1169.79" y2="218.65"/>
<line class="st4" x1="1178.1" y1="202.52" x2="1174.78" y2="222.13"/>
<path class="st2" d="M1162.5,221.5"/>
<path class="st2" d="M892.08,580.8"/>
<line class="st1" x1="1172.89" y1="170.2" x2="1166.35" y2="192.37"/>
<path class="st1" d="M1159.41,201.98c0,5.33,3.2,9.66,7.15,9.66l6.46-5.53l4.98-4.25l-5.05-4.21l-6.39-5.32
	C1162.61,192.32,1159.41,196.65,1159.41,201.98z"/>
<line class="st1" x1="1178.59" y1="202.31" x2="1187" y2="218.63"/>
<line class="st1" x1="1178.55" y1="202.56" x2="1182.05" y2="222.14"/>
<line class="st5" x1="1155.5" y1="151.5" x2="1202.5" y2="151.5"/>
<line class="st5" x1="1157.5" y1="156.5" x2="1204.5" y2="156.5"/>
</svg>
